<svg xmlns="http://www.w3.org/2000/svg" width="1024" height="1024">
<image x="-32" y="16" width="64" height="64" href="/blocks_9.png" id="tile_-32_16"/>
<image x="0" y="32" width="64" height="64" href="/blocks_9.png" id="tile_0_32"/>
<image x="32" y="48" width="64" height="64" href="/blocks_9.png" id="tile_32_48"/>
<image x="64" y="64" width="64" height="64" href="/blocks_9.png" id="tile_64_64"/>
<image x="96" y="80" width="64" height="64" href="/blocks_9.png" id="tile_96_80"/>
<image x="128" y="96" width="64" height="64" href="/blocks_9.png" id="tile_128_96"/>
<image x="160" y="112" width="64" height="64" href="/blocks_9.png" id="tile_160_112"/>
<image x="192" y="128" width="64" height="64" href="/blocks_9.png" id="tile_192_128"/>
<image x="224" y="144" width="64" height="64" href="/blocks_9.png" id="tile_224_144"/>
<image x="256" y="160" width="64" height="64" href="/blocks_9.png" id="tile_256_160"/>
<image x="0" y="64" width="64" height="64" href="/blocks_9.png" id="tile_0_64"/>
<image x="32" y="80" width="64" height="64" href="/blocks_9.png" id="tile_32_80"/>
<image x="64" y="96" width="64" height="64" href="/blocks_9.png" id="tile_64_96"/>
<image x="96" y="112" width="64" height="64" href="/blocks_9.png" id="tile_96_112"/>
<image x="128" y="128" width="64" height="64" href="/blocks_9.png" id="tile_128_128"/>
<image x="160" y="144" width="64" height="64" href="/blocks_9.png" id="tile_160_144"/>
<image x="192" y="160" width="64" height="64" href="/blocks_9.png" id="tile_192_160"/>
<image x="224" y="176" width="64" height="64" href="/blocks_9.png" id="tile_224_176"/>
<image x="256" y="192" width="64" height="64" href="/blocks_9.png" id="tile_256_192"/>
<image x="288" y="208" width="64" height="64" href="/blocks_9.png" id="tile_288_208"/>
<image x="320" y="224" width="64" height="64" href="/blocks_9.png" id="tile_320_224"/>
<image x="352" y="240" width="64" height="64" href="/blocks_9.png" id="tile_352_240"/>
<image x="32" y="112" width="64" height="64" href="/blocks_9.png" id="tile_32_112"/>
<image x="64" y="128" width="64" height="64" href="/blocks_9.png" id="tile_64_128"/>
<image x="96" y="144" width="64" height="64" href="/blocks_9.png" id="tile_96_144"/>
<image x="128" y="160" width="64" height="64" href="/blocks_9.png" id="tile_128_160"/>
<image x="160" y="176" width="64" height="64" href="/blocks_9.png" id="tile_160_176"/>
<image x="192" y="192" width="64" height="64" href="/blocks_9.png" id="tile_192_192"/>
<image x="288" y="240" width="64" height="64" href="/blocks_9.png" id="tile_288_240"/>
<image x="32" y="144" width="64" height="64" href="/blocks_9.png" id="tile_32_144"/>
<image x="64" y="160" width="64" height="64" href="/blocks_9.png" id="tile_64_160"/>
<image x="96" y="176" width="64" height="64" href="/blocks_9.png" id="tile_96_176"/>
<image x="128" y="192" width="64" height="64" href="/blocks_9.png" id="tile_128_192"/>
<image x="160" y="208" width="64" height="64" href="/blocks_9.png" id="tile_160_208"/>
<image x="192" y="224" width="64" height="64" href="/blocks_9.png" id="tile_192_224"/>
<image x="224" y="240" width="64" height="64" href="/blocks_9.png" id="tile_224_240"/>
<image x="256" y="256" width="64" height="64" href="/blocks_9.png" id="tile_256_256"/>
<image x="288" y="272" width="64" height="64" href="/blocks_9.png" id="tile_288_272"/>
<image x="320" y="288" width="64" height="64" href="/blocks_9.png" id="tile_320_288"/>
<image x="32" y="176" width="64" height="64" href="/blocks_9.png" id="tile_32_176"/>
<image x="64" y="192" width="64" height="64" href="/blocks_9.png" id="tile_64_192"/>
<image x="96" y="208" width="64" height="64" href="/blocks_9.png" id="tile_96_208"/>
<image x="128" y="224" width="64" height="64" href="/blocks_9.png" id="tile_128_224"/>
<image x="32" y="208" width="64" height="64" href="/blocks_9.png" id="tile_32_208"/>
<image x="64" y="224" width="64" height="64" href="/blocks_9.png" id="tile_64_224"/>
<image x="96" y="240" width="64" height="64" href="/blocks_9.png" id="tile_96_240"/>
<image x="32" y="240" width="64" height="64" href="/blocks_9.png" id="tile_32_240"/>
</svg>