<svg version="1.2" xmlns="http://www.w3.org/2000/svg" viewBox="0 0 478 36" width="478" height="36">
	<title>Untitled-1-svg</title>
	<style>
		.s0 { fill: #fff } 
	</style>
	<g>
		<g id="Layer_2">
			<path fill-rule="evenodd" class="s0" d="m0.1 31.5v-31.5h27v4.5h4.5v13.5h-4.5v4.5h-18v9zm9-13.5h13.5v-13.5h-13.5z"/>
			<path class="s0" d="m40.6 31.5v-4.5h9v-22.5h-4.5v-4.5h13.5v27h9v4.5z"/>
			<path fill-rule="evenodd" class="s0" d="m76.6 31.5v-4.5h-4.5v-4.5h4.5v-4.5h18v-4.5h-18v-4.5h22.5v4.5h4.5v18zm4.5-4.5h13.5v-4.5h-13.5z"/>
			<path class="s0" d="m112.6 36v-4.5h18v-4.5h-18v-4.5h-4.5v-13.5h9v13.5h13.5v-13.5h9v22.5h-4.5v4.5z"/>
			<path fill-rule="evenodd" class="s0" d="m181.6 35.9l9.2-22.5h4.5l1.8-4.5h4.5l1.8-4.5h13.5l-1.8 4.5h4.5l-1.8 4.5h4.5l-9.2 22.5h-9l3.7-9h-13.5l-3.7 9zm14.5-13.5h13.5l3.6-9h-4.5l1.9-4.5h-4.5l-1.9 4.5h-4.5z"/>
			<path class="s0" d="m217.6 35.9l12.8-31.5h9l-1.8 4.5h4.5l-1.8 4.5h4.5l-1.9 4.5h4.5l5.5-13.5h9l-12.8 31.5h-9l3.7-9h-4.5l1.8-4.5h-4.5l1.8-4.5h-4.5l-7.3 18h-9z"/>
			<path class="s0" d="m267.1 35.9l5.5-13.5h-4.5l1.8-4.5h-4.5l5.5-13.5h9l-5.5 13.5h9l5.5-13.5h9l-5.5 13.5h-4.5l-1.8 4.5h-4.5l-5.5 13.5z"/>
			<path class="s0" d="m303.1 35.9l11-27h-9l1.8-4.5h27l-1.8 4.5h-9l-11 27z"/>
			<path class="s0" d="m325.6 35.9l12.8-31.5h9l-5.5 13.5h13.5l5.5-13.5h9l-12.8 31.5h-9l5.5-13.5h-13.5l-5.5 13.5z"/>
			<path class="s0" d="m366.1 35.9l1.8-4.5h9l9.2-22.5h-9l1.8-4.5h27l-1.8 4.5h-9l-9.2 22.5h9l-1.8 4.5z"/>
			<path class="s0" d="m397.6 35.9l12.8-31.5h9l-1.8 4.5h4.5l-1.8 4.5h4.5l-1.9 4.5h4.5l5.5-13.5h9l-12.8 31.5h-9l3.7-9h-4.5l1.8-4.5h-4.5l1.8-4.5h-4.5l-7.3 18h-9z"/>
			<path class="s0" d="m442.6 35.9l1.8-4.5h-4.5l1.8-4.5h-4.5l5.5-13.5h4.5l1.9-4.5h4.5l1.8-4.5h22.5l-1.8 4.5h-18l-1.9 4.5h-4.5l-5.5 13.5h4.5l-1.8 4.5h9l3.7-9h-4.5l1.8-4.5h13.5l-7.3 18z"/>
		</g>
	</g>
</svg>